<mxfile host="65bd71144e">
    <diagram id="2PaOU35JZ-xzdQAK5plE" name="Page-1">
        <mxGraphModel dx="1233" dy="1665" grid="1" gridSize="10" guides="1" tooltips="1" connect="1" arrows="1" fold="1" page="1" pageScale="1" pageWidth="850" pageHeight="1100" math="0" shadow="0">
            <root>
                <mxCell id="0"/>
                <mxCell id="1" parent="0"/>
                <mxCell id="2" value="" style="swimlane;childLayout=stackLayout;resizeParent=1;resizeParentMax=0;startSize=20;html=1;fillColor=#3333FF;strokeColor=#000000;fontColor=#000000;swimlaneFillColor=#CCCCFF;" parent="1" vertex="1">
                    <mxGeometry x="160.00000000000045" y="-1040" width="600" height="480" as="geometry"/>
                </mxCell>
                <mxCell id="3" value="&lt;font color=&quot;#000000&quot;&gt;Controller&lt;/font&gt;" style="swimlane;startSize=20;html=1;fillColor=#CCFFFF;labelBackgroundColor=none;swimlaneFillColor=#CCFFFF;strokeColor=#000000;" parent="2" vertex="1">
                    <mxGeometry y="20" width="150" height="460" as="geometry"/>
                </mxCell>
                <mxCell id="20" style="edgeStyle=none;html=1;exitX=0.5;exitY=1;exitDx=0;exitDy=0;exitPerimeter=0;entryX=0.5;entryY=0;entryDx=0;entryDy=0;entryPerimeter=0;strokeColor=#000000;" parent="3" source="4" target="19" edge="1">
                    <mxGeometry relative="1" as="geometry"/>
                </mxCell>
                <mxCell id="4" value="&lt;font color=&quot;#000000&quot;&gt;Initialisatie&lt;/font&gt;" style="shape=note;whiteSpace=wrap;html=1;backgroundOutline=1;darkOpacity=0.05;labelBackgroundColor=none;strokeColor=#36393d;fillColor=#ffff88;" parent="3" vertex="1">
                    <mxGeometry x="20" y="40" width="120" height="60" as="geometry"/>
                </mxCell>
                <mxCell id="5" value="&lt;font color=&quot;#000000&quot;&gt;Vacature&lt;br&gt;tonen&lt;br&gt;&lt;/font&gt;" style="shape=note;whiteSpace=wrap;html=1;backgroundOutline=1;darkOpacity=0.05;labelBackgroundColor=none;strokeColor=#36393d;fillColor=#ffff88;" parent="3" vertex="1">
                    <mxGeometry x="20" y="360" width="120" height="60" as="geometry"/>
                </mxCell>
                <mxCell id="21" style="edgeStyle=none;html=1;exitX=0.5;exitY=1;exitDx=0;exitDy=0;exitPerimeter=0;strokeColor=#000000;" parent="3" source="19" target="5" edge="1">
                    <mxGeometry relative="1" as="geometry"/>
                </mxCell>
                <mxCell id="19" value="&lt;font color=&quot;#000000&quot;&gt;Homepage&lt;br&gt;ophalen&lt;br&gt;&lt;/font&gt;" style="shape=note;whiteSpace=wrap;html=1;backgroundOutline=1;darkOpacity=0.05;labelBackgroundColor=none;strokeColor=#36393d;fillColor=#ffff88;" parent="3" vertex="1">
                    <mxGeometry x="20" y="120" width="120" height="60" as="geometry"/>
                </mxCell>
                <mxCell id="6" value="&lt;font color=&quot;#000000&quot;&gt;Busniness Logic&lt;/font&gt;" style="swimlane;startSize=20;html=1;fillColor=#CCCCFF;strokeColor=#000000;" parent="2" vertex="1">
                    <mxGeometry x="150" y="20" width="300" height="460" as="geometry"/>
                </mxCell>
                <mxCell id="7" style="edgeStyle=none;html=1;exitX=0.5;exitY=1;exitDx=0;exitDy=0;exitPerimeter=0;entryX=0;entryY=0.5;entryDx=0;entryDy=0;entryPerimeter=0;strokeColor=#000000;fontColor=#000000;" parent="6" source="8" target="9" edge="1">
                    <mxGeometry relative="1" as="geometry">
                        <Array as="points">
                            <mxPoint x="89.99999999999955" y="270"/>
                        </Array>
                    </mxGeometry>
                </mxCell>
                <mxCell id="8" value="&lt;font color=&quot;#000000&quot;&gt;Selecteer&lt;br&gt;vacature&lt;br&gt;&lt;/font&gt;" style="shape=note;whiteSpace=wrap;html=1;backgroundOutline=1;darkOpacity=0.05;labelBackgroundColor=none;strokeColor=#36393d;fillColor=#ffff88;" parent="6" vertex="1">
                    <mxGeometry x="30" y="120" width="120" height="60" as="geometry"/>
                </mxCell>
                <mxCell id="9" value="&lt;font color=&quot;#000000&quot;&gt;Ophalen&lt;br&gt;logo&lt;br&gt;&lt;/font&gt;" style="shape=note;whiteSpace=wrap;html=1;backgroundOutline=1;darkOpacity=0.05;labelBackgroundColor=none;strokeColor=#36393d;fillColor=#ffff88;" parent="6" vertex="1">
                    <mxGeometry x="150" y="240" width="120" height="60" as="geometry"/>
                </mxCell>
                <mxCell id="67" value="&lt;font color=&quot;#000000&quot;&gt;Ophalen &lt;br&gt;user&lt;/font&gt;" style="shape=note;whiteSpace=wrap;html=1;backgroundOutline=1;darkOpacity=0.05;labelBackgroundColor=none;strokeColor=#36393d;fillColor=#ffff88;" vertex="1" parent="6">
                    <mxGeometry x="150" y="330" width="120" height="60" as="geometry"/>
                </mxCell>
                <mxCell id="10" value="&lt;font color=&quot;#000000&quot;&gt;Model&lt;/font&gt;" style="swimlane;startSize=20;html=1;strokeColor=#000000;swimlaneFillColor=#CCE5FF;fillColor=#CCE5FF;" parent="2" vertex="1">
                    <mxGeometry x="450" y="20" width="150" height="460" as="geometry"/>
                </mxCell>
                <mxCell id="11" value="VACATURE" style="swimlane;whiteSpace=wrap;html=1;labelBackgroundColor=none;strokeColor=#000000;fontColor=#000000;fillColor=#3399FF;" parent="10" vertex="1">
                    <mxGeometry x="15" y="40" width="120" height="160" as="geometry"/>
                </mxCell>
                <mxCell id="12" value="id&lt;br&gt;user_id&lt;br&gt;logo_id&lt;br&gt;titel&lt;br&gt;datum&lt;br&gt;niveau&lt;br&gt;plaats&lt;br&gt;omschrijving" style="text;html=1;strokeColor=none;fillColor=none;align=center;verticalAlign=middle;whiteSpace=wrap;rounded=0;labelBackgroundColor=none;fontColor=#000000;" parent="11" vertex="1">
                    <mxGeometry x="30" y="27" width="60" height="130" as="geometry"/>
                </mxCell>
                <mxCell id="13" value="&lt;font color=&quot;#000000&quot;&gt;Selecteer&lt;br&gt;logo&lt;/font&gt;" style="shape=note;whiteSpace=wrap;html=1;backgroundOutline=1;darkOpacity=0.05;labelBackgroundColor=none;strokeColor=#36393d;fillColor=#ffff88;" parent="10" vertex="1">
                    <mxGeometry x="15" y="240" width="120" height="60" as="geometry"/>
                </mxCell>
                <mxCell id="66" value="&lt;font color=&quot;#000000&quot;&gt;Selecteer&lt;br&gt;user&lt;/font&gt;" style="shape=note;whiteSpace=wrap;html=1;backgroundOutline=1;darkOpacity=0.05;labelBackgroundColor=none;strokeColor=#36393d;fillColor=#ffff88;" vertex="1" parent="10">
                    <mxGeometry x="15" y="330" width="120" height="60" as="geometry"/>
                </mxCell>
                <mxCell id="14" style="edgeStyle=none;html=1;strokeColor=#000000;fontColor=#000000;" parent="2" target="8" edge="1">
                    <mxGeometry relative="1" as="geometry">
                        <mxPoint x="469.99999999999955" y="170" as="sourcePoint"/>
                    </mxGeometry>
                </mxCell>
                <mxCell id="30" style="edgeStyle=none;html=1;exitX=0;exitY=0.5;exitDx=0;exitDy=0;exitPerimeter=0;entryX=0;entryY=0;entryDx=120;entryDy=30;entryPerimeter=0;strokeColor=#000000;" parent="2" source="8" target="19" edge="1">
                    <mxGeometry relative="1" as="geometry"/>
                </mxCell>
                <mxCell id="70" style="edgeStyle=none;html=1;entryX=0;entryY=0;entryDx=120;entryDy=30;entryPerimeter=0;strokeColor=#000000;" edge="1" parent="2" source="66" target="67">
                    <mxGeometry relative="1" as="geometry"/>
                </mxCell>
                <mxCell id="16" style="edgeStyle=none;html=1;entryX=0;entryY=0.5;entryDx=0;entryDy=0;entryPerimeter=0;strokeColor=#000000;" parent="1" source="15" target="4" edge="1">
                    <mxGeometry relative="1" as="geometry"/>
                </mxCell>
                <mxCell id="15" value="Actor" style="shape=umlActor;verticalLabelPosition=bottom;verticalAlign=top;html=1;outlineConnect=0;labelBackgroundColor=none;strokeColor=#000000;fontColor=#000000;fillColor=#CCE5FF;" parent="1" vertex="1">
                    <mxGeometry x="50" y="-980" width="30" height="60" as="geometry"/>
                </mxCell>
                <mxCell id="17" value="" style="ellipse;whiteSpace=wrap;html=1;aspect=fixed;labelBackgroundColor=none;strokeColor=#000000;fontColor=#000000;fillColor=#3399FF;" parent="1" vertex="1">
                    <mxGeometry x="42.5" y="-651" width="45" height="45" as="geometry"/>
                </mxCell>
                <mxCell id="18" style="edgeStyle=none;html=1;strokeColor=#000000;" parent="1" source="5" edge="1">
                    <mxGeometry relative="1" as="geometry">
                        <mxPoint x="90" y="-630" as="targetPoint"/>
                    </mxGeometry>
                </mxCell>
                <mxCell id="22" value="" style="swimlane;childLayout=stackLayout;resizeParent=1;resizeParentMax=0;startSize=20;html=1;fillColor=#3333FF;strokeColor=#000000;fontColor=#000000;swimlaneFillColor=#CCCCFF;" parent="1" vertex="1">
                    <mxGeometry x="160" y="-540" width="600" height="190" as="geometry"/>
                </mxCell>
                <mxCell id="23" value="&lt;font color=&quot;#000000&quot;&gt;Controller&lt;/font&gt;" style="swimlane;startSize=20;html=1;fillColor=#CCFFFF;labelBackgroundColor=none;swimlaneFillColor=#CCFFFF;strokeColor=#000000;" parent="22" vertex="1">
                    <mxGeometry y="20" width="150" height="170" as="geometry"/>
                </mxCell>
                <mxCell id="24" value="&lt;font color=&quot;#000000&quot;&gt;Busniness Logic&lt;/font&gt;" style="swimlane;startSize=20;html=1;fillColor=#CCCCFF;strokeColor=#000000;" parent="22" vertex="1">
                    <mxGeometry x="150" y="20" width="300" height="170" as="geometry"/>
                </mxCell>
                <mxCell id="25" value="&lt;font color=&quot;#000000&quot;&gt;Selecteer&lt;br&gt;logo&lt;/font&gt;" style="shape=note;whiteSpace=wrap;html=1;backgroundOutline=1;darkOpacity=0.05;labelBackgroundColor=none;strokeColor=#36393d;fillColor=#ffff88;" parent="24" vertex="1">
                    <mxGeometry x="20.000000000000455" y="61.5" width="120" height="60" as="geometry"/>
                </mxCell>
                <mxCell id="26" value="&lt;font color=&quot;#000000&quot;&gt;Model&lt;/font&gt;" style="swimlane;startSize=20;html=1;strokeColor=#000000;swimlaneFillColor=#CCE5FF;fillColor=#CCE5FF;" parent="22" vertex="1">
                    <mxGeometry x="450" y="20" width="150" height="170" as="geometry"/>
                </mxCell>
                <mxCell id="27" value="LOGO" style="swimlane;whiteSpace=wrap;html=1;labelBackgroundColor=none;strokeColor=#000000;fontColor=#000000;fillColor=#3399FF;" parent="26" vertex="1">
                    <mxGeometry x="15" y="40" width="120" height="100" as="geometry"/>
                </mxCell>
                <mxCell id="28" value="id&lt;br&gt;logo" style="text;html=1;strokeColor=none;fillColor=none;align=center;verticalAlign=middle;whiteSpace=wrap;rounded=0;labelBackgroundColor=none;fontColor=#000000;" parent="27" vertex="1">
                    <mxGeometry x="30" y="21.5" width="60" height="77" as="geometry"/>
                </mxCell>
                <mxCell id="29" style="edgeStyle=none;html=1;entryX=0;entryY=0;entryDx=120;entryDy=30;entryPerimeter=0;strokeColor=#000000;" parent="22" source="27" target="25" edge="1">
                    <mxGeometry relative="1" as="geometry"/>
                </mxCell>
                <mxCell id="31" value="" style="swimlane;childLayout=stackLayout;resizeParent=1;resizeParentMax=0;startSize=20;html=1;fillColor=#3333FF;strokeColor=#000000;fontColor=#000000;swimlaneFillColor=#CCCCFF;" vertex="1" parent="1">
                    <mxGeometry x="160" y="-330" width="600" height="180" as="geometry"/>
                </mxCell>
                <mxCell id="32" value="&lt;font color=&quot;#000000&quot;&gt;Controller&lt;/font&gt;" style="swimlane;startSize=20;html=1;fillColor=#CCFFFF;labelBackgroundColor=none;swimlaneFillColor=#CCFFFF;strokeColor=#000000;" vertex="1" parent="31">
                    <mxGeometry y="20" width="150" height="160" as="geometry"/>
                </mxCell>
                <mxCell id="33" value="&lt;font color=&quot;#000000&quot;&gt;Busniness Logic&lt;/font&gt;" style="swimlane;startSize=20;html=1;fillColor=#CCCCFF;strokeColor=#000000;" vertex="1" parent="31">
                    <mxGeometry x="150" y="20" width="300" height="160" as="geometry"/>
                </mxCell>
                <mxCell id="34" value="&lt;font color=&quot;#000000&quot;&gt;Selecteer&lt;br&gt;user&lt;br&gt;&lt;/font&gt;" style="shape=note;whiteSpace=wrap;html=1;backgroundOutline=1;darkOpacity=0.05;labelBackgroundColor=none;strokeColor=#36393d;fillColor=#ffff88;" vertex="1" parent="33">
                    <mxGeometry x="20.000000000000455" y="61.5" width="120" height="60" as="geometry"/>
                </mxCell>
                <mxCell id="35" value="&lt;font color=&quot;#000000&quot;&gt;Model&lt;/font&gt;" style="swimlane;startSize=20;html=1;strokeColor=#000000;swimlaneFillColor=#CCE5FF;fillColor=#CCE5FF;" vertex="1" parent="31">
                    <mxGeometry x="450" y="20" width="150" height="160" as="geometry"/>
                </mxCell>
                <mxCell id="36" value="USER" style="swimlane;whiteSpace=wrap;html=1;labelBackgroundColor=none;strokeColor=#000000;fontColor=#000000;fillColor=#3399FF;" vertex="1" parent="35">
                    <mxGeometry x="15" y="35" width="120" height="110" as="geometry"/>
                </mxCell>
                <mxCell id="37" value="id&lt;br&gt;role&lt;br&gt;email&lt;br&gt;....&lt;br&gt;...." style="text;html=1;strokeColor=none;fillColor=none;align=center;verticalAlign=middle;whiteSpace=wrap;rounded=0;labelBackgroundColor=none;fontColor=#000000;" vertex="1" parent="36">
                    <mxGeometry x="30" y="28.5" width="60" height="77" as="geometry"/>
                </mxCell>
                <mxCell id="38" style="edgeStyle=none;html=1;entryX=0;entryY=0;entryDx=120;entryDy=30;entryPerimeter=0;strokeColor=#000000;" edge="1" parent="31" source="36" target="34">
                    <mxGeometry relative="1" as="geometry"/>
                </mxCell>
                <mxCell id="68" style="edgeStyle=none;html=1;strokeColor=#000000;" edge="1" parent="1" source="8">
                    <mxGeometry relative="1" as="geometry">
                        <mxPoint x="460.0000000000002" y="-650" as="targetPoint"/>
                        <Array as="points">
                            <mxPoint x="400" y="-650"/>
                        </Array>
                    </mxGeometry>
                </mxCell>
                <mxCell id="69" style="edgeStyle=none;html=1;strokeColor=#000000;" edge="1" parent="1" source="13">
                    <mxGeometry relative="1" as="geometry">
                        <mxPoint x="580.0000000000002" y="-750" as="targetPoint"/>
                    </mxGeometry>
                </mxCell>
            </root>
        </mxGraphModel>
    </diagram>
</mxfile>